<mxfile host="app.diagrams.net" modified="2024-03-15T10:19:16.963Z" agent="Mozilla/5.0 (Windows NT 10.0; Win64; x64) AppleWebKit/537.36 (KHTML, like Gecko) Chrome/122.0.0.0 Safari/537.36" etag="z47dPQnDxA5506TKjPbf" version="24.0.2" type="device">
  <diagram id="C5RBs43oDa-KdzZeNtuy" name="Page-1">
    <mxGraphModel dx="2117" dy="1707" grid="1" gridSize="10" guides="1" tooltips="1" connect="1" arrows="1" fold="1" page="1" pageScale="1" pageWidth="827" pageHeight="1169" math="0" shadow="0">
      <root>
        <mxCell id="WIyWlLk6GJQsqaUBKTNV-0" />
        <mxCell id="WIyWlLk6GJQsqaUBKTNV-1" parent="WIyWlLk6GJQsqaUBKTNV-0" />
        <mxCell id="1NZBN1DP3-KnoKSpKNE3-0" value="Calciatore" style="rounded=0;whiteSpace=wrap;html=1;" parent="WIyWlLk6GJQsqaUBKTNV-1" vertex="1">
          <mxGeometry x="260" y="-10" width="70" height="30" as="geometry" />
        </mxCell>
        <mxCell id="1NZBN1DP3-KnoKSpKNE3-1" value="Militanza" style="shape=rhombus;perimeter=rhombusPerimeter;whiteSpace=wrap;html=1;align=center;" parent="WIyWlLk6GJQsqaUBKTNV-1" vertex="1">
          <mxGeometry x="235" y="210" width="107.5" height="60" as="geometry" />
        </mxCell>
        <mxCell id="1NZBN1DP3-KnoKSpKNE3-3" value="TrofeoCalciatore" style="rounded=0;whiteSpace=wrap;html=1;" parent="WIyWlLk6GJQsqaUBKTNV-1" vertex="1">
          <mxGeometry x="707" y="-10" width="120" height="30" as="geometry" />
        </mxCell>
        <mxCell id="1NZBN1DP3-KnoKSpKNE3-4" value="Squadra" style="rounded=0;whiteSpace=wrap;html=1;" parent="WIyWlLk6GJQsqaUBKTNV-1" vertex="1">
          <mxGeometry x="257.5" y="460" width="70" height="30" as="geometry" />
        </mxCell>
        <mxCell id="1NZBN1DP3-KnoKSpKNE3-5" value="Competizione" style="rounded=0;whiteSpace=wrap;html=1;" parent="WIyWlLk6GJQsqaUBKTNV-1" vertex="1">
          <mxGeometry x="630" y="460" width="80" height="30" as="geometry" />
        </mxCell>
        <mxCell id="1NZBN1DP3-KnoKSpKNE3-25" value="" style="endArrow=none;html=1;rounded=0;exitX=1;exitY=0.5;exitDx=0;exitDy=0;entryX=0;entryY=0.5;entryDx=0;entryDy=0;" parent="WIyWlLk6GJQsqaUBKTNV-1" source="HXaW3dYZVn4k2560jxuQ-22" target="1NZBN1DP3-KnoKSpKNE3-3" edge="1">
          <mxGeometry relative="1" as="geometry">
            <mxPoint x="403" y="-110" as="sourcePoint" />
            <mxPoint x="485" as="targetPoint" />
          </mxGeometry>
        </mxCell>
        <mxCell id="RmjUIZnMxiN12pQxrKKd-7" value="0...*" style="edgeLabel;html=1;align=center;verticalAlign=middle;resizable=0;points=[];" parent="1NZBN1DP3-KnoKSpKNE3-25" vertex="1" connectable="0">
          <mxGeometry x="0.1325" relative="1" as="geometry">
            <mxPoint as="offset" />
          </mxGeometry>
        </mxCell>
        <mxCell id="1NZBN1DP3-KnoKSpKNE3-26" value="" style="endArrow=none;html=1;rounded=0;exitX=0;exitY=0.5;exitDx=0;exitDy=0;entryX=1;entryY=0.5;entryDx=0;entryDy=0;" parent="WIyWlLk6GJQsqaUBKTNV-1" source="HXaW3dYZVn4k2560jxuQ-16" target="1NZBN1DP3-KnoKSpKNE3-4" edge="1">
          <mxGeometry relative="1" as="geometry">
            <mxPoint x="373" y="230" as="sourcePoint" />
            <mxPoint x="455" y="340" as="targetPoint" />
          </mxGeometry>
        </mxCell>
        <mxCell id="HXaW3dYZVn4k2560jxuQ-33" value="1...*" style="edgeLabel;html=1;align=center;verticalAlign=middle;resizable=0;points=[];" parent="1NZBN1DP3-KnoKSpKNE3-26" vertex="1" connectable="0">
          <mxGeometry x="0.4667" y="-1" relative="1" as="geometry">
            <mxPoint as="offset" />
          </mxGeometry>
        </mxCell>
        <mxCell id="1NZBN1DP3-KnoKSpKNE3-31" value="Nome" style="ellipse;whiteSpace=wrap;html=1;align=center;" parent="WIyWlLk6GJQsqaUBKTNV-1" vertex="1">
          <mxGeometry x="140" y="-100" width="100" height="30" as="geometry" />
        </mxCell>
        <mxCell id="1NZBN1DP3-KnoKSpKNE3-34" value="Cognome" style="ellipse;whiteSpace=wrap;html=1;align=center;" parent="WIyWlLk6GJQsqaUBKTNV-1" vertex="1">
          <mxGeometry x="250" y="-105" width="100" height="30" as="geometry" />
        </mxCell>
        <mxCell id="1NZBN1DP3-KnoKSpKNE3-36" value="Piede" style="ellipse;whiteSpace=wrap;html=1;align=center;" parent="WIyWlLk6GJQsqaUBKTNV-1" vertex="1">
          <mxGeometry x="397.5" y="-55" width="100" height="30" as="geometry" />
        </mxCell>
        <mxCell id="1NZBN1DP3-KnoKSpKNE3-37" value="Data&lt;span style=&quot;background-color: initial;&quot;&gt;Nascita&lt;/span&gt;" style="ellipse;whiteSpace=wrap;html=1;align=center;" parent="WIyWlLk6GJQsqaUBKTNV-1" vertex="1">
          <mxGeometry x="135" y="-40" width="100" height="30" as="geometry" />
        </mxCell>
        <mxCell id="1NZBN1DP3-KnoKSpKNE3-39" value="Ruolo" style="ellipse;shape=doubleEllipse;margin=3;whiteSpace=wrap;html=1;align=center;" parent="WIyWlLk6GJQsqaUBKTNV-1" vertex="1">
          <mxGeometry x="330" y="70" width="90" height="30" as="geometry" />
        </mxCell>
        <mxCell id="1NZBN1DP3-KnoKSpKNE3-40" value="Feature" style="ellipse;shape=doubleEllipse;margin=3;whiteSpace=wrap;html=1;align=center;" parent="WIyWlLk6GJQsqaUBKTNV-1" vertex="1">
          <mxGeometry x="145" y="35" width="90" height="30" as="geometry" />
        </mxCell>
        <mxCell id="1NZBN1DP3-KnoKSpKNE3-41" value="" style="endArrow=none;html=1;rounded=0;entryX=0;entryY=0;entryDx=0;entryDy=0;" parent="WIyWlLk6GJQsqaUBKTNV-1" source="1NZBN1DP3-KnoKSpKNE3-37" target="1NZBN1DP3-KnoKSpKNE3-0" edge="1">
          <mxGeometry relative="1" as="geometry">
            <mxPoint x="340" y="40" as="sourcePoint" />
            <mxPoint x="500" y="40" as="targetPoint" />
          </mxGeometry>
        </mxCell>
        <mxCell id="1NZBN1DP3-KnoKSpKNE3-43" value="" style="endArrow=none;html=1;rounded=0;entryX=0;entryY=0.5;entryDx=0;entryDy=0;exitX=1;exitY=0.5;exitDx=0;exitDy=0;" parent="WIyWlLk6GJQsqaUBKTNV-1" source="1NZBN1DP3-KnoKSpKNE3-40" target="1NZBN1DP3-KnoKSpKNE3-0" edge="1">
          <mxGeometry relative="1" as="geometry">
            <mxPoint x="143" y="-44" as="sourcePoint" />
            <mxPoint x="270" as="targetPoint" />
          </mxGeometry>
        </mxCell>
        <mxCell id="1NZBN1DP3-KnoKSpKNE3-44" value="" style="endArrow=none;html=1;rounded=0;entryX=0.25;entryY=0;entryDx=0;entryDy=0;exitX=0.557;exitY=0.974;exitDx=0;exitDy=0;exitPerimeter=0;" parent="WIyWlLk6GJQsqaUBKTNV-1" source="1NZBN1DP3-KnoKSpKNE3-31" target="1NZBN1DP3-KnoKSpKNE3-0" edge="1">
          <mxGeometry relative="1" as="geometry">
            <mxPoint x="153" y="-34" as="sourcePoint" />
            <mxPoint x="280" y="10" as="targetPoint" />
          </mxGeometry>
        </mxCell>
        <mxCell id="1NZBN1DP3-KnoKSpKNE3-45" value="" style="endArrow=none;html=1;rounded=0;entryX=0.5;entryY=0;entryDx=0;entryDy=0;exitX=0.435;exitY=1.053;exitDx=0;exitDy=0;exitPerimeter=0;" parent="WIyWlLk6GJQsqaUBKTNV-1" source="1NZBN1DP3-KnoKSpKNE3-34" target="1NZBN1DP3-KnoKSpKNE3-0" edge="1">
          <mxGeometry relative="1" as="geometry">
            <mxPoint x="163" y="-24" as="sourcePoint" />
            <mxPoint x="290" y="20" as="targetPoint" />
          </mxGeometry>
        </mxCell>
        <mxCell id="1NZBN1DP3-KnoKSpKNE3-46" value="" style="endArrow=none;html=1;rounded=0;entryX=1;entryY=0.5;entryDx=0;entryDy=0;exitX=0.342;exitY=0.917;exitDx=0;exitDy=0;exitPerimeter=0;" parent="WIyWlLk6GJQsqaUBKTNV-1" source="1NZBN1DP3-KnoKSpKNE3-36" target="1NZBN1DP3-KnoKSpKNE3-0" edge="1">
          <mxGeometry relative="1" as="geometry">
            <mxPoint x="173" y="-14" as="sourcePoint" />
            <mxPoint x="300" y="30" as="targetPoint" />
          </mxGeometry>
        </mxCell>
        <mxCell id="1NZBN1DP3-KnoKSpKNE3-48" value="" style="endArrow=none;html=1;rounded=0;entryX=0;entryY=0.5;entryDx=0;entryDy=0;exitX=1;exitY=0.75;exitDx=0;exitDy=0;" parent="WIyWlLk6GJQsqaUBKTNV-1" source="1NZBN1DP3-KnoKSpKNE3-0" target="1NZBN1DP3-KnoKSpKNE3-39" edge="1">
          <mxGeometry relative="1" as="geometry">
            <mxPoint x="183" y="-4" as="sourcePoint" />
            <mxPoint x="310" y="40" as="targetPoint" />
          </mxGeometry>
        </mxCell>
        <mxCell id="1NZBN1DP3-KnoKSpKNE3-51" value="Descrizione" style="ellipse;whiteSpace=wrap;html=1;align=center;" parent="WIyWlLk6GJQsqaUBKTNV-1" vertex="1">
          <mxGeometry x="732" y="50" width="70" height="30" as="geometry" />
        </mxCell>
        <mxCell id="1NZBN1DP3-KnoKSpKNE3-52" value="Nome" style="ellipse;whiteSpace=wrap;html=1;align=center;" parent="WIyWlLk6GJQsqaUBKTNV-1" vertex="1">
          <mxGeometry x="732" y="-70" width="70" height="25" as="geometry" />
        </mxCell>
        <mxCell id="1NZBN1DP3-KnoKSpKNE3-53" value="" style="endArrow=none;html=1;rounded=0;exitX=0.5;exitY=0;exitDx=0;exitDy=0;entryX=0.5;entryY=1;entryDx=0;entryDy=0;" parent="WIyWlLk6GJQsqaUBKTNV-1" source="1NZBN1DP3-KnoKSpKNE3-3" target="1NZBN1DP3-KnoKSpKNE3-52" edge="1">
          <mxGeometry relative="1" as="geometry">
            <mxPoint x="350" y="-105" as="sourcePoint" />
            <mxPoint x="432" y="5" as="targetPoint" />
          </mxGeometry>
        </mxCell>
        <mxCell id="1NZBN1DP3-KnoKSpKNE3-54" value="" style="endArrow=none;html=1;rounded=0;exitX=0.5;exitY=0;exitDx=0;exitDy=0;entryX=0.5;entryY=1;entryDx=0;entryDy=0;" parent="WIyWlLk6GJQsqaUBKTNV-1" source="1NZBN1DP3-KnoKSpKNE3-51" target="1NZBN1DP3-KnoKSpKNE3-3" edge="1">
          <mxGeometry relative="1" as="geometry">
            <mxPoint x="360" y="-95" as="sourcePoint" />
            <mxPoint x="442" y="15" as="targetPoint" />
          </mxGeometry>
        </mxCell>
        <mxCell id="1NZBN1DP3-KnoKSpKNE3-57" value="Nome" style="ellipse;whiteSpace=wrap;html=1;align=center;" parent="WIyWlLk6GJQsqaUBKTNV-1" vertex="1">
          <mxGeometry x="190" y="400" width="70" height="30" as="geometry" />
        </mxCell>
        <mxCell id="1NZBN1DP3-KnoKSpKNE3-58" value="NazionalitÃ " style="ellipse;whiteSpace=wrap;html=1;align=center;" parent="WIyWlLk6GJQsqaUBKTNV-1" vertex="1">
          <mxGeometry x="330" y="400" width="70" height="30" as="geometry" />
        </mxCell>
        <mxCell id="1NZBN1DP3-KnoKSpKNE3-59" value="" style="endArrow=none;html=1;rounded=0;entryX=0.5;entryY=1;entryDx=0;entryDy=0;exitX=0.124;exitY=-0.08;exitDx=0;exitDy=0;exitPerimeter=0;" parent="WIyWlLk6GJQsqaUBKTNV-1" source="1NZBN1DP3-KnoKSpKNE3-4" target="1NZBN1DP3-KnoKSpKNE3-57" edge="1">
          <mxGeometry relative="1" as="geometry">
            <mxPoint x="379" y="283.93" as="sourcePoint" />
            <mxPoint x="305" y="473.93" as="targetPoint" />
          </mxGeometry>
        </mxCell>
        <mxCell id="1NZBN1DP3-KnoKSpKNE3-60" value="" style="endArrow=none;html=1;rounded=0;exitX=0.75;exitY=0;exitDx=0;exitDy=0;" parent="WIyWlLk6GJQsqaUBKTNV-1" source="1NZBN1DP3-KnoKSpKNE3-4" target="1NZBN1DP3-KnoKSpKNE3-58" edge="1">
          <mxGeometry relative="1" as="geometry">
            <mxPoint x="389" y="293.93" as="sourcePoint" />
            <mxPoint x="315" y="483.93" as="targetPoint" />
          </mxGeometry>
        </mxCell>
        <mxCell id="1NZBN1DP3-KnoKSpKNE3-61" value="Nome" style="ellipse;whiteSpace=wrap;html=1;align=center;" parent="WIyWlLk6GJQsqaUBKTNV-1" vertex="1">
          <mxGeometry x="635" y="530" width="70" height="30" as="geometry" />
        </mxCell>
        <mxCell id="1NZBN1DP3-KnoKSpKNE3-62" value="NazionalitÃ " style="ellipse;whiteSpace=wrap;html=1;align=center;" parent="WIyWlLk6GJQsqaUBKTNV-1" vertex="1">
          <mxGeometry x="740" y="460" width="70" height="30" as="geometry" />
        </mxCell>
        <mxCell id="1NZBN1DP3-KnoKSpKNE3-63" value="" style="endArrow=none;html=1;rounded=0;entryX=0.5;entryY=1;entryDx=0;entryDy=0;exitX=0.5;exitY=0;exitDx=0;exitDy=0;" parent="WIyWlLk6GJQsqaUBKTNV-1" source="1NZBN1DP3-KnoKSpKNE3-61" target="1NZBN1DP3-KnoKSpKNE3-5" edge="1">
          <mxGeometry relative="1" as="geometry">
            <mxPoint x="529" y="280" as="sourcePoint" />
            <mxPoint x="455" y="470" as="targetPoint" />
          </mxGeometry>
        </mxCell>
        <mxCell id="1NZBN1DP3-KnoKSpKNE3-64" value="" style="endArrow=none;html=1;rounded=0;entryX=1;entryY=0.5;entryDx=0;entryDy=0;exitX=0;exitY=0.5;exitDx=0;exitDy=0;" parent="WIyWlLk6GJQsqaUBKTNV-1" source="1NZBN1DP3-KnoKSpKNE3-62" target="1NZBN1DP3-KnoKSpKNE3-5" edge="1">
          <mxGeometry relative="1" as="geometry">
            <mxPoint x="539" y="290" as="sourcePoint" />
            <mxPoint x="465" y="480" as="targetPoint" />
          </mxGeometry>
        </mxCell>
        <mxCell id="1NZBN1DP3-KnoKSpKNE3-77" value="Stagione" style="ellipse;whiteSpace=wrap;html=1;align=center;" parent="WIyWlLk6GJQsqaUBKTNV-1" vertex="1">
          <mxGeometry x="535" y="-90" width="70" height="30" as="geometry" />
        </mxCell>
        <mxCell id="1NZBN1DP3-KnoKSpKNE3-82" value="" style="endArrow=none;html=1;rounded=0;exitX=0.5;exitY=1;exitDx=0;exitDy=0;entryX=0.5;entryY=0;entryDx=0;entryDy=0;" parent="WIyWlLk6GJQsqaUBKTNV-1" source="1NZBN1DP3-KnoKSpKNE3-77" target="HXaW3dYZVn4k2560jxuQ-22" edge="1">
          <mxGeometry relative="1" as="geometry">
            <mxPoint x="553" y="-100" as="sourcePoint" />
            <mxPoint x="780.0000000000002" y="-90" as="targetPoint" />
          </mxGeometry>
        </mxCell>
        <mxCell id="1NZBN1DP3-KnoKSpKNE3-84" value="DataInizio" style="ellipse;whiteSpace=wrap;html=1;align=center;" parent="WIyWlLk6GJQsqaUBKTNV-1" vertex="1">
          <mxGeometry x="327.5" y="160" width="70" height="30" as="geometry" />
        </mxCell>
        <mxCell id="1NZBN1DP3-KnoKSpKNE3-85" value="DataFine" style="ellipse;whiteSpace=wrap;html=1;align=center;" parent="WIyWlLk6GJQsqaUBKTNV-1" vertex="1">
          <mxGeometry x="344" y="290" width="70" height="30" as="geometry" />
        </mxCell>
        <mxCell id="1NZBN1DP3-KnoKSpKNE3-89" style="edgeStyle=orthogonalEdgeStyle;rounded=0;orthogonalLoop=1;jettySize=auto;html=1;exitX=0.5;exitY=1;exitDx=0;exitDy=0;" parent="WIyWlLk6GJQsqaUBKTNV-1" edge="1">
          <mxGeometry relative="1" as="geometry">
            <mxPoint x="335" y="180" as="sourcePoint" />
            <mxPoint x="335" y="180" as="targetPoint" />
          </mxGeometry>
        </mxCell>
        <mxCell id="1NZBN1DP3-KnoKSpKNE3-92" value="" style="endArrow=none;html=1;rounded=0;exitX=0.415;exitY=1.062;exitDx=0;exitDy=0;entryX=1;entryY=0;entryDx=0;entryDy=0;exitPerimeter=0;" parent="WIyWlLk6GJQsqaUBKTNV-1" source="1NZBN1DP3-KnoKSpKNE3-84" target="1NZBN1DP3-KnoKSpKNE3-1" edge="1">
          <mxGeometry relative="1" as="geometry">
            <mxPoint x="557.5" y="185" as="sourcePoint" />
            <mxPoint x="592.5" y="200" as="targetPoint" />
          </mxGeometry>
        </mxCell>
        <mxCell id="1NZBN1DP3-KnoKSpKNE3-93" value="" style="endArrow=none;html=1;rounded=0;exitX=1;exitY=1;exitDx=0;exitDy=0;entryX=0;entryY=0;entryDx=0;entryDy=0;" parent="WIyWlLk6GJQsqaUBKTNV-1" source="1NZBN1DP3-KnoKSpKNE3-1" target="1NZBN1DP3-KnoKSpKNE3-85" edge="1">
          <mxGeometry relative="1" as="geometry">
            <mxPoint x="567.5" y="195" as="sourcePoint" />
            <mxPoint x="602.5" y="210" as="targetPoint" />
          </mxGeometry>
        </mxCell>
        <mxCell id="1NZBN1DP3-KnoKSpKNE3-97" value="GolSegnati" style="ellipse;whiteSpace=wrap;html=1;align=center;" parent="WIyWlLk6GJQsqaUBKTNV-1" vertex="1">
          <mxGeometry x="190" y="160" width="70" height="30" as="geometry" />
        </mxCell>
        <mxCell id="1NZBN1DP3-KnoKSpKNE3-98" value="GolSubiti" style="ellipse;whiteSpace=wrap;html=1;align=center;" parent="WIyWlLk6GJQsqaUBKTNV-1" vertex="1">
          <mxGeometry x="130" y="225" width="70" height="30" as="geometry" />
        </mxCell>
        <mxCell id="1NZBN1DP3-KnoKSpKNE3-100" value="PartiteGiocate" style="ellipse;whiteSpace=wrap;html=1;align=center;" parent="WIyWlLk6GJQsqaUBKTNV-1" vertex="1">
          <mxGeometry x="160" y="290" width="100" height="30" as="geometry" />
        </mxCell>
        <mxCell id="1NZBN1DP3-KnoKSpKNE3-102" value="" style="endArrow=none;html=1;rounded=0;exitX=0;exitY=0;exitDx=0;exitDy=0;entryX=0.5;entryY=1;entryDx=0;entryDy=0;" parent="WIyWlLk6GJQsqaUBKTNV-1" source="1NZBN1DP3-KnoKSpKNE3-1" target="1NZBN1DP3-KnoKSpKNE3-97" edge="1">
          <mxGeometry relative="1" as="geometry">
            <mxPoint x="-11.819999999999936" y="229.43000000000006" as="sourcePoint" />
            <mxPoint x="337.5" y="261" as="targetPoint" />
          </mxGeometry>
        </mxCell>
        <mxCell id="1NZBN1DP3-KnoKSpKNE3-104" value="" style="endArrow=none;html=1;rounded=0;exitX=0.5;exitY=0;exitDx=0;exitDy=0;entryX=0;entryY=1;entryDx=0;entryDy=0;" parent="WIyWlLk6GJQsqaUBKTNV-1" source="1NZBN1DP3-KnoKSpKNE3-100" target="1NZBN1DP3-KnoKSpKNE3-1" edge="1">
          <mxGeometry relative="1" as="geometry">
            <mxPoint x="375.5" y="220" as="sourcePoint" />
            <mxPoint x="52.5" y="260" as="targetPoint" />
          </mxGeometry>
        </mxCell>
        <mxCell id="1NZBN1DP3-KnoKSpKNE3-106" value="" style="endArrow=none;html=1;rounded=0;entryX=1;entryY=0.5;entryDx=0;entryDy=0;exitX=0;exitY=0.5;exitDx=0;exitDy=0;" parent="WIyWlLk6GJQsqaUBKTNV-1" source="1NZBN1DP3-KnoKSpKNE3-1" target="1NZBN1DP3-KnoKSpKNE3-98" edge="1">
          <mxGeometry relative="1" as="geometry">
            <mxPoint x="-7.9545454545452685" y="260" as="sourcePoint" />
            <mxPoint x="377.5" y="301" as="targetPoint" />
          </mxGeometry>
        </mxCell>
        <mxCell id="1NZBN1DP3-KnoKSpKNE3-108" value="NazionalitÃ " style="ellipse;shape=doubleEllipse;margin=3;whiteSpace=wrap;html=1;align=center;" parent="WIyWlLk6GJQsqaUBKTNV-1" vertex="1">
          <mxGeometry x="200" y="70" width="90" height="30" as="geometry" />
        </mxCell>
        <mxCell id="1NZBN1DP3-KnoKSpKNE3-109" value="" style="endArrow=none;html=1;rounded=0;exitX=0.5;exitY=0;exitDx=0;exitDy=0;entryX=0.25;entryY=1;entryDx=0;entryDy=0;" parent="WIyWlLk6GJQsqaUBKTNV-1" source="1NZBN1DP3-KnoKSpKNE3-108" target="1NZBN1DP3-KnoKSpKNE3-0" edge="1">
          <mxGeometry relative="1" as="geometry">
            <mxPoint x="160" y="15" as="sourcePoint" />
            <mxPoint x="260" y="20" as="targetPoint" />
          </mxGeometry>
        </mxCell>
        <mxCell id="1NZBN1DP3-KnoKSpKNE3-111" value="DataRitiro" style="ellipse;whiteSpace=wrap;html=1;align=center;" parent="WIyWlLk6GJQsqaUBKTNV-1" vertex="1">
          <mxGeometry x="380" y="30" width="100" height="30" as="geometry" />
        </mxCell>
        <mxCell id="1NZBN1DP3-KnoKSpKNE3-112" value="" style="endArrow=none;html=1;rounded=0;entryX=0.41;entryY=-0.067;entryDx=0;entryDy=0;exitX=1;exitY=1;exitDx=0;exitDy=0;entryPerimeter=0;" parent="WIyWlLk6GJQsqaUBKTNV-1" source="1NZBN1DP3-KnoKSpKNE3-0" target="1NZBN1DP3-KnoKSpKNE3-111" edge="1">
          <mxGeometry relative="1" as="geometry">
            <mxPoint x="374" y="-32" as="sourcePoint" />
            <mxPoint x="340" y="15" as="targetPoint" />
          </mxGeometry>
        </mxCell>
        <mxCell id="1NZBN1DP3-KnoKSpKNE3-136" value="AnnoFondazione" style="ellipse;whiteSpace=wrap;html=1;align=center;" parent="WIyWlLk6GJQsqaUBKTNV-1" vertex="1">
          <mxGeometry x="235" y="527.25" width="115" height="35.5" as="geometry" />
        </mxCell>
        <mxCell id="1NZBN1DP3-KnoKSpKNE3-137" value="" style="endArrow=none;html=1;rounded=0;exitX=0.5;exitY=1;exitDx=0;exitDy=0;entryX=0.5;entryY=0;entryDx=0;entryDy=0;" parent="WIyWlLk6GJQsqaUBKTNV-1" source="1NZBN1DP3-KnoKSpKNE3-4" target="1NZBN1DP3-KnoKSpKNE3-136" edge="1">
          <mxGeometry relative="1" as="geometry">
            <mxPoint x="305" y="503.93" as="sourcePoint" />
            <mxPoint x="229" y="537.93" as="targetPoint" />
          </mxGeometry>
        </mxCell>
        <mxCell id="HXaW3dYZVn4k2560jxuQ-17" value="" style="endArrow=none;html=1;rounded=0;exitX=0;exitY=0.5;exitDx=0;exitDy=0;entryX=1;entryY=0.5;entryDx=0;entryDy=0;" parent="WIyWlLk6GJQsqaUBKTNV-1" source="1NZBN1DP3-KnoKSpKNE3-5" target="HXaW3dYZVn4k2560jxuQ-16" edge="1">
          <mxGeometry relative="1" as="geometry">
            <mxPoint x="580" y="475" as="sourcePoint" />
            <mxPoint x="570" y="537" as="targetPoint" />
          </mxGeometry>
        </mxCell>
        <mxCell id="HXaW3dYZVn4k2560jxuQ-34" value="0...*" style="edgeLabel;html=1;align=center;verticalAlign=middle;resizable=0;points=[];" parent="HXaW3dYZVn4k2560jxuQ-17" vertex="1" connectable="0">
          <mxGeometry x="-0.6552" y="-1" relative="1" as="geometry">
            <mxPoint as="offset" />
          </mxGeometry>
        </mxCell>
        <mxCell id="HXaW3dYZVn4k2560jxuQ-16" value="Partecipa" style="shape=rhombus;perimeter=rhombusPerimeter;whiteSpace=wrap;html=1;align=center;" parent="WIyWlLk6GJQsqaUBKTNV-1" vertex="1">
          <mxGeometry x="405" y="445" width="120" height="60" as="geometry" />
        </mxCell>
        <mxCell id="HXaW3dYZVn4k2560jxuQ-22" value="VinceCalciatore&lt;br&gt;" style="shape=rhombus;perimeter=rhombusPerimeter;whiteSpace=wrap;html=1;align=center;" parent="WIyWlLk6GJQsqaUBKTNV-1" vertex="1">
          <mxGeometry x="510" y="-25" width="120" height="60" as="geometry" />
        </mxCell>
        <mxCell id="2khIARLb_W-reCzCLCh1-0" value="Stagione" style="ellipse;whiteSpace=wrap;html=1;align=center;" parent="WIyWlLk6GJQsqaUBKTNV-1" vertex="1">
          <mxGeometry x="407.5" y="530" width="115" height="35.5" as="geometry" />
        </mxCell>
        <mxCell id="2khIARLb_W-reCzCLCh1-1" value="" style="endArrow=none;html=1;rounded=0;exitX=0.5;exitY=1;exitDx=0;exitDy=0;entryX=0.5;entryY=0;entryDx=0;entryDy=0;" parent="WIyWlLk6GJQsqaUBKTNV-1" source="HXaW3dYZVn4k2560jxuQ-16" target="2khIARLb_W-reCzCLCh1-0" edge="1">
          <mxGeometry relative="1" as="geometry">
            <mxPoint x="477.75" y="560" as="sourcePoint" />
            <mxPoint x="393.75" y="604" as="targetPoint" />
          </mxGeometry>
        </mxCell>
        <mxCell id="2khIARLb_W-reCzCLCh1-3" style="edgeStyle=orthogonalEdgeStyle;rounded=0;orthogonalLoop=1;jettySize=auto;html=1;exitX=0.5;exitY=1;exitDx=0;exitDy=0;" parent="WIyWlLk6GJQsqaUBKTNV-1" source="1NZBN1DP3-KnoKSpKNE3-136" target="1NZBN1DP3-KnoKSpKNE3-136" edge="1">
          <mxGeometry relative="1" as="geometry" />
        </mxCell>
        <mxCell id="2khIARLb_W-reCzCLCh1-5" value="" style="endArrow=none;html=1;rounded=0;entryX=0;entryY=0.5;entryDx=0;entryDy=0;" parent="WIyWlLk6GJQsqaUBKTNV-1" source="1NZBN1DP3-KnoKSpKNE3-0" target="HXaW3dYZVn4k2560jxuQ-22" edge="1">
          <mxGeometry relative="1" as="geometry">
            <mxPoint x="750" y="-5" as="sourcePoint" />
            <mxPoint x="870" y="-5" as="targetPoint" />
          </mxGeometry>
        </mxCell>
        <mxCell id="RmjUIZnMxiN12pQxrKKd-8" value="0...*" style="edgeLabel;html=1;align=center;verticalAlign=middle;resizable=0;points=[];" parent="2khIARLb_W-reCzCLCh1-5" vertex="1" connectable="0">
          <mxGeometry x="-0.6156" relative="1" as="geometry">
            <mxPoint as="offset" />
          </mxGeometry>
        </mxCell>
        <mxCell id="2khIARLb_W-reCzCLCh1-7" value="TrofeoCompetizione" style="rounded=0;whiteSpace=wrap;html=1;" parent="WIyWlLk6GJQsqaUBKTNV-1" vertex="1">
          <mxGeometry x="-155" y="460" width="120" height="30" as="geometry" />
        </mxCell>
        <mxCell id="2khIARLb_W-reCzCLCh1-9" value="Descrizione" style="ellipse;whiteSpace=wrap;html=1;align=center;" parent="WIyWlLk6GJQsqaUBKTNV-1" vertex="1">
          <mxGeometry x="-130" y="525" width="70" height="30" as="geometry" />
        </mxCell>
        <mxCell id="2khIARLb_W-reCzCLCh1-10" value="Nome" style="ellipse;whiteSpace=wrap;html=1;align=center;" parent="WIyWlLk6GJQsqaUBKTNV-1" vertex="1">
          <mxGeometry x="-130" y="395" width="70" height="30" as="geometry" />
        </mxCell>
        <mxCell id="2khIARLb_W-reCzCLCh1-11" value="" style="endArrow=none;html=1;rounded=0;exitX=0.5;exitY=0;exitDx=0;exitDy=0;entryX=0.5;entryY=1;entryDx=0;entryDy=0;" parent="WIyWlLk6GJQsqaUBKTNV-1" source="2khIARLb_W-reCzCLCh1-7" target="2khIARLb_W-reCzCLCh1-10" edge="1">
          <mxGeometry relative="1" as="geometry">
            <mxPoint x="-512" y="367.75" as="sourcePoint" />
            <mxPoint x="-430" y="477.75" as="targetPoint" />
          </mxGeometry>
        </mxCell>
        <mxCell id="2khIARLb_W-reCzCLCh1-12" value="" style="endArrow=none;html=1;rounded=0;exitX=0.5;exitY=0;exitDx=0;exitDy=0;entryX=0.5;entryY=1;entryDx=0;entryDy=0;" parent="WIyWlLk6GJQsqaUBKTNV-1" source="2khIARLb_W-reCzCLCh1-9" target="2khIARLb_W-reCzCLCh1-7" edge="1">
          <mxGeometry relative="1" as="geometry">
            <mxPoint x="-502" y="377.75" as="sourcePoint" />
            <mxPoint x="-420" y="487.75" as="targetPoint" />
          </mxGeometry>
        </mxCell>
        <mxCell id="2khIARLb_W-reCzCLCh1-16" value="Stagione" style="ellipse;whiteSpace=wrap;html=1;align=center;" parent="WIyWlLk6GJQsqaUBKTNV-1" vertex="1">
          <mxGeometry x="47.49999999999994" y="400" width="70" height="30" as="geometry" />
        </mxCell>
        <mxCell id="2khIARLb_W-reCzCLCh1-17" value="" style="endArrow=none;html=1;rounded=0;exitX=0.5;exitY=1;exitDx=0;exitDy=0;entryX=0.5;entryY=0;entryDx=0;entryDy=0;" parent="WIyWlLk6GJQsqaUBKTNV-1" source="2khIARLb_W-reCzCLCh1-16" target="2khIARLb_W-reCzCLCh1-18" edge="1">
          <mxGeometry relative="1" as="geometry">
            <mxPoint x="-132.00000000000006" y="370.25" as="sourcePoint" />
            <mxPoint x="95.00000000000017" y="380.25" as="targetPoint" />
          </mxGeometry>
        </mxCell>
        <mxCell id="2khIARLb_W-reCzCLCh1-18" value="VinceSquadra" style="shape=rhombus;perimeter=rhombusPerimeter;whiteSpace=wrap;html=1;align=center;" parent="WIyWlLk6GJQsqaUBKTNV-1" vertex="1">
          <mxGeometry x="22.499999999999943" y="445" width="120" height="60" as="geometry" />
        </mxCell>
        <mxCell id="2khIARLb_W-reCzCLCh1-20" value="" style="endArrow=none;html=1;rounded=0;entryX=0;entryY=0.5;entryDx=0;entryDy=0;exitX=1;exitY=0.5;exitDx=0;exitDy=0;" parent="WIyWlLk6GJQsqaUBKTNV-1" source="2khIARLb_W-reCzCLCh1-18" target="1NZBN1DP3-KnoKSpKNE3-4" edge="1">
          <mxGeometry relative="1" as="geometry">
            <mxPoint x="180" y="530" as="sourcePoint" />
            <mxPoint x="-310" y="516" as="targetPoint" />
          </mxGeometry>
        </mxCell>
        <mxCell id="RmjUIZnMxiN12pQxrKKd-5" value="0...*" style="edgeLabel;html=1;align=center;verticalAlign=middle;resizable=0;points=[];" parent="2khIARLb_W-reCzCLCh1-20" vertex="1" connectable="0">
          <mxGeometry x="0.4278" y="4" relative="1" as="geometry">
            <mxPoint as="offset" />
          </mxGeometry>
        </mxCell>
        <mxCell id="2khIARLb_W-reCzCLCh1-21" value="" style="endArrow=none;html=1;rounded=0;exitX=1;exitY=0.5;exitDx=0;exitDy=0;entryX=0;entryY=0.5;entryDx=0;entryDy=0;" parent="WIyWlLk6GJQsqaUBKTNV-1" source="2khIARLb_W-reCzCLCh1-7" target="2khIARLb_W-reCzCLCh1-18" edge="1">
          <mxGeometry relative="1" as="geometry">
            <mxPoint x="-310" y="553.25" as="sourcePoint" />
            <mxPoint x="-265" y="513.25" as="targetPoint" />
          </mxGeometry>
        </mxCell>
        <mxCell id="RmjUIZnMxiN12pQxrKKd-6" value="0...*" style="edgeLabel;html=1;align=center;verticalAlign=middle;resizable=0;points=[];" parent="2khIARLb_W-reCzCLCh1-21" vertex="1" connectable="0">
          <mxGeometry x="-0.4243" y="-1" relative="1" as="geometry">
            <mxPoint as="offset" />
          </mxGeometry>
        </mxCell>
        <mxCell id="RmjUIZnMxiN12pQxrKKd-1" value="" style="endArrow=none;html=1;rounded=0;exitX=0.5;exitY=1;exitDx=0;exitDy=0;entryX=0.5;entryY=0;entryDx=0;entryDy=0;" parent="WIyWlLk6GJQsqaUBKTNV-1" source="1NZBN1DP3-KnoKSpKNE3-1" target="1NZBN1DP3-KnoKSpKNE3-4" edge="1">
          <mxGeometry relative="1" as="geometry">
            <mxPoint x="65" y="486" as="sourcePoint" />
            <mxPoint x="268" y="485" as="targetPoint" />
          </mxGeometry>
        </mxCell>
        <mxCell id="RmjUIZnMxiN12pQxrKKd-4" value="1...*" style="edgeLabel;html=1;align=center;verticalAlign=middle;resizable=0;points=[];" parent="RmjUIZnMxiN12pQxrKKd-1" vertex="1" connectable="0">
          <mxGeometry x="0.8066" y="1" relative="1" as="geometry">
            <mxPoint as="offset" />
          </mxGeometry>
        </mxCell>
        <mxCell id="RmjUIZnMxiN12pQxrKKd-2" value="" style="endArrow=none;html=1;rounded=0;entryX=0.5;entryY=0;entryDx=0;entryDy=0;" parent="WIyWlLk6GJQsqaUBKTNV-1" source="1NZBN1DP3-KnoKSpKNE3-0" target="1NZBN1DP3-KnoKSpKNE3-1" edge="1">
          <mxGeometry relative="1" as="geometry">
            <mxPoint x="75" y="496" as="sourcePoint" />
            <mxPoint x="278" y="495" as="targetPoint" />
          </mxGeometry>
        </mxCell>
        <mxCell id="RmjUIZnMxiN12pQxrKKd-3" value="1...*" style="edgeLabel;html=1;align=center;verticalAlign=middle;resizable=0;points=[];" parent="RmjUIZnMxiN12pQxrKKd-2" vertex="1" connectable="0">
          <mxGeometry x="-0.7806" y="-1" relative="1" as="geometry">
            <mxPoint as="offset" />
          </mxGeometry>
        </mxCell>
        <mxCell id="RmjUIZnMxiN12pQxrKKd-9" style="edgeStyle=orthogonalEdgeStyle;rounded=0;orthogonalLoop=1;jettySize=auto;html=1;exitX=0.5;exitY=1;exitDx=0;exitDy=0;" parent="WIyWlLk6GJQsqaUBKTNV-1" source="1NZBN1DP3-KnoKSpKNE3-100" target="1NZBN1DP3-KnoKSpKNE3-100" edge="1">
          <mxGeometry relative="1" as="geometry" />
        </mxCell>
        <mxCell id="RmjUIZnMxiN12pQxrKKd-10" style="edgeStyle=orthogonalEdgeStyle;rounded=0;orthogonalLoop=1;jettySize=auto;html=1;exitX=0.5;exitY=1;exitDx=0;exitDy=0;" parent="WIyWlLk6GJQsqaUBKTNV-1" source="1NZBN1DP3-KnoKSpKNE3-136" target="1NZBN1DP3-KnoKSpKNE3-136" edge="1">
          <mxGeometry relative="1" as="geometry" />
        </mxCell>
        <mxCell id="RmjUIZnMxiN12pQxrKKd-54" value="Ha" style="shape=rhombus;perimeter=rhombusPerimeter;whiteSpace=wrap;html=1;align=center;" parent="WIyWlLk6GJQsqaUBKTNV-1" vertex="1">
          <mxGeometry x="229.99999999999994" y="640" width="120" height="60" as="geometry" />
        </mxCell>
        <mxCell id="RmjUIZnMxiN12pQxrKKd-55" value="" style="endArrow=none;html=1;rounded=0;entryX=0;entryY=0.5;entryDx=0;entryDy=0;exitX=1;exitY=1;exitDx=0;exitDy=0;" parent="WIyWlLk6GJQsqaUBKTNV-1" source="2khIARLb_W-reCzCLCh1-7" target="RmjUIZnMxiN12pQxrKKd-54" edge="1">
          <mxGeometry relative="1" as="geometry">
            <mxPoint x="153" y="485" as="sourcePoint" />
            <mxPoint x="268" y="485" as="targetPoint" />
          </mxGeometry>
        </mxCell>
        <mxCell id="RmjUIZnMxiN12pQxrKKd-61" value="1" style="edgeLabel;html=1;align=center;verticalAlign=middle;resizable=0;points=[];" parent="RmjUIZnMxiN12pQxrKKd-55" vertex="1" connectable="0">
          <mxGeometry x="-0.8752" y="2" relative="1" as="geometry">
            <mxPoint as="offset" />
          </mxGeometry>
        </mxCell>
        <mxCell id="RmjUIZnMxiN12pQxrKKd-57" value="" style="endArrow=none;html=1;rounded=0;entryX=0;entryY=1;entryDx=0;entryDy=0;exitX=1;exitY=0.5;exitDx=0;exitDy=0;" parent="WIyWlLk6GJQsqaUBKTNV-1" source="RmjUIZnMxiN12pQxrKKd-54" target="1NZBN1DP3-KnoKSpKNE3-5" edge="1">
          <mxGeometry relative="1" as="geometry">
            <mxPoint x="163" y="495" as="sourcePoint" />
            <mxPoint x="278" y="495" as="targetPoint" />
          </mxGeometry>
        </mxCell>
        <mxCell id="RmjUIZnMxiN12pQxrKKd-60" value="1" style="edgeLabel;html=1;align=center;verticalAlign=middle;resizable=0;points=[];" parent="RmjUIZnMxiN12pQxrKKd-57" vertex="1" connectable="0">
          <mxGeometry x="0.8108" y="3" relative="1" as="geometry">
            <mxPoint y="1" as="offset" />
          </mxGeometry>
        </mxCell>
        <mxCell id="5GsCce4HbXQNHnkUnKzz-0" value="Descrizione" style="ellipse;whiteSpace=wrap;html=1;align=center;" parent="WIyWlLk6GJQsqaUBKTNV-1" vertex="1">
          <mxGeometry x="635" y="395" width="70" height="30" as="geometry" />
        </mxCell>
        <mxCell id="5GsCce4HbXQNHnkUnKzz-1" value="" style="endArrow=none;html=1;rounded=0;entryX=0.5;entryY=1;entryDx=0;entryDy=0;exitX=0.5;exitY=0;exitDx=0;exitDy=0;" parent="WIyWlLk6GJQsqaUBKTNV-1" source="1NZBN1DP3-KnoKSpKNE3-5" target="5GsCce4HbXQNHnkUnKzz-0" edge="1">
          <mxGeometry relative="1" as="geometry">
            <mxPoint x="680" y="540" as="sourcePoint" />
            <mxPoint x="680" y="500" as="targetPoint" />
          </mxGeometry>
        </mxCell>
        <mxCell id="Ul3EUF9ANTJgbijlkM0--0" value="Sesso" style="ellipse;whiteSpace=wrap;html=1;align=center;" parent="WIyWlLk6GJQsqaUBKTNV-1" vertex="1">
          <mxGeometry x="380" y="-100" width="100" height="30" as="geometry" />
        </mxCell>
        <mxCell id="Ul3EUF9ANTJgbijlkM0--1" value="" style="endArrow=none;html=1;rounded=0;entryX=0.75;entryY=0;entryDx=0;entryDy=0;exitX=0.5;exitY=1;exitDx=0;exitDy=0;" parent="WIyWlLk6GJQsqaUBKTNV-1" source="Ul3EUF9ANTJgbijlkM0--0" target="1NZBN1DP3-KnoKSpKNE3-0" edge="1">
          <mxGeometry relative="1" as="geometry">
            <mxPoint x="299" y="-63" as="sourcePoint" />
            <mxPoint x="305" as="targetPoint" />
          </mxGeometry>
        </mxCell>
        <mxCell id="Ul3EUF9ANTJgbijlkM0--2" value="Categoria" style="ellipse;whiteSpace=wrap;html=1;align=center;" parent="WIyWlLk6GJQsqaUBKTNV-1" vertex="1">
          <mxGeometry x="160" y="505" width="70" height="30" as="geometry" />
        </mxCell>
        <mxCell id="Ul3EUF9ANTJgbijlkM0--3" value="" style="endArrow=none;html=1;rounded=0;entryX=0.5;entryY=0;entryDx=0;entryDy=0;exitX=0;exitY=1;exitDx=0;exitDy=0;" parent="WIyWlLk6GJQsqaUBKTNV-1" source="1NZBN1DP3-KnoKSpKNE3-4" target="Ul3EUF9ANTJgbijlkM0--2" edge="1">
          <mxGeometry relative="1" as="geometry">
            <mxPoint x="276" y="468" as="sourcePoint" />
            <mxPoint x="235" y="440" as="targetPoint" />
          </mxGeometry>
        </mxCell>
        <mxCell id="Ul3EUF9ANTJgbijlkM0--4" value="Categoria" style="ellipse;whiteSpace=wrap;html=1;align=center;" parent="WIyWlLk6GJQsqaUBKTNV-1" vertex="1">
          <mxGeometry x="732" y="390" width="70" height="30" as="geometry" />
        </mxCell>
        <mxCell id="Ul3EUF9ANTJgbijlkM0--5" value="" style="endArrow=none;html=1;rounded=0;entryX=1;entryY=0;entryDx=0;entryDy=0;exitX=0.5;exitY=1;exitDx=0;exitDy=0;" parent="WIyWlLk6GJQsqaUBKTNV-1" source="Ul3EUF9ANTJgbijlkM0--4" target="1NZBN1DP3-KnoKSpKNE3-5" edge="1">
          <mxGeometry relative="1" as="geometry">
            <mxPoint x="268" y="500" as="sourcePoint" />
            <mxPoint x="205" y="515" as="targetPoint" />
          </mxGeometry>
        </mxCell>
        <mxCell id="MwmgZaYltmlbZEu33GDX-0" value="Categoria" style="ellipse;whiteSpace=wrap;html=1;align=center;" parent="WIyWlLk6GJQsqaUBKTNV-1" vertex="1">
          <mxGeometry x="-260" y="460" width="70" height="30" as="geometry" />
        </mxCell>
        <mxCell id="MwmgZaYltmlbZEu33GDX-1" value="" style="endArrow=none;html=1;rounded=0;entryX=1;entryY=0.5;entryDx=0;entryDy=0;exitX=0;exitY=0.5;exitDx=0;exitDy=0;" parent="WIyWlLk6GJQsqaUBKTNV-1" source="2khIARLb_W-reCzCLCh1-7" target="MwmgZaYltmlbZEu33GDX-0" edge="1">
          <mxGeometry relative="1" as="geometry">
            <mxPoint x="-202" y="445" as="sourcePoint" />
            <mxPoint x="-225" y="395" as="targetPoint" />
          </mxGeometry>
        </mxCell>
        <mxCell id="MwmgZaYltmlbZEu33GDX-2" value="Categoria" style="ellipse;whiteSpace=wrap;html=1;align=center;" parent="WIyWlLk6GJQsqaUBKTNV-1" vertex="1">
          <mxGeometry x="870" y="-10" width="70" height="30" as="geometry" />
        </mxCell>
        <mxCell id="MwmgZaYltmlbZEu33GDX-3" value="" style="endArrow=none;html=1;rounded=0;entryX=0;entryY=0.5;entryDx=0;entryDy=0;exitX=1;exitY=0.5;exitDx=0;exitDy=0;" parent="WIyWlLk6GJQsqaUBKTNV-1" source="1NZBN1DP3-KnoKSpKNE3-3" target="MwmgZaYltmlbZEu33GDX-2" edge="1">
          <mxGeometry relative="1" as="geometry">
            <mxPoint x="978" y="-25" as="sourcePoint" />
            <mxPoint x="955" y="-75" as="targetPoint" />
          </mxGeometry>
        </mxCell>
        <mxCell id="FD02nayElv6m7gwwoiaN-0" value="Amministratore" style="rounded=0;whiteSpace=wrap;html=1;" parent="WIyWlLk6GJQsqaUBKTNV-1" vertex="1">
          <mxGeometry x="-230" y="-10" width="110" height="30" as="geometry" />
        </mxCell>
        <mxCell id="FD02nayElv6m7gwwoiaN-1" value="Username" style="ellipse;whiteSpace=wrap;html=1;align=center;" parent="WIyWlLk6GJQsqaUBKTNV-1" vertex="1">
          <mxGeometry x="-225" y="-55" width="100" height="30" as="geometry" />
        </mxCell>
        <mxCell id="FD02nayElv6m7gwwoiaN-2" value="Password" style="ellipse;whiteSpace=wrap;html=1;align=center;" parent="WIyWlLk6GJQsqaUBKTNV-1" vertex="1">
          <mxGeometry x="-225" y="40" width="100" height="30" as="geometry" />
        </mxCell>
        <mxCell id="FD02nayElv6m7gwwoiaN-3" value="" style="endArrow=none;html=1;rounded=0;entryX=0.5;entryY=0;entryDx=0;entryDy=0;exitX=0.5;exitY=1;exitDx=0;exitDy=0;" parent="WIyWlLk6GJQsqaUBKTNV-1" source="FD02nayElv6m7gwwoiaN-1" target="FD02nayElv6m7gwwoiaN-0" edge="1">
          <mxGeometry relative="1" as="geometry">
            <mxPoint x="101" y="-41" as="sourcePoint" />
            <mxPoint x="148" y="-10" as="targetPoint" />
          </mxGeometry>
        </mxCell>
        <mxCell id="FD02nayElv6m7gwwoiaN-4" value="" style="endArrow=none;html=1;rounded=0;entryX=0.5;entryY=1;entryDx=0;entryDy=0;exitX=0.5;exitY=0;exitDx=0;exitDy=0;" parent="WIyWlLk6GJQsqaUBKTNV-1" source="FD02nayElv6m7gwwoiaN-2" target="FD02nayElv6m7gwwoiaN-0" edge="1">
          <mxGeometry relative="1" as="geometry">
            <mxPoint x="111" y="-31" as="sourcePoint" />
            <mxPoint x="158" as="targetPoint" />
          </mxGeometry>
        </mxCell>
        <mxCell id="FD02nayElv6m7gwwoiaN-5" value="Gestisce" style="shape=rhombus;perimeter=rhombusPerimeter;whiteSpace=wrap;html=1;align=center;" parent="WIyWlLk6GJQsqaUBKTNV-1" vertex="1">
          <mxGeometry x="-35" y="-25" width="120" height="60" as="geometry" />
        </mxCell>
        <mxCell id="FD02nayElv6m7gwwoiaN-6" value="" style="endArrow=none;html=1;rounded=0;entryX=0;entryY=0.5;entryDx=0;entryDy=0;exitX=1;exitY=0.5;exitDx=0;exitDy=0;" parent="WIyWlLk6GJQsqaUBKTNV-1" source="FD02nayElv6m7gwwoiaN-0" target="FD02nayElv6m7gwwoiaN-5" edge="1">
          <mxGeometry relative="1" as="geometry">
            <mxPoint x="305" y="30" as="sourcePoint" />
            <mxPoint x="299" y="220" as="targetPoint" />
          </mxGeometry>
        </mxCell>
        <mxCell id="FD02nayElv6m7gwwoiaN-11" value="*" style="edgeLabel;html=1;align=center;verticalAlign=middle;resizable=0;points=[];" parent="FD02nayElv6m7gwwoiaN-6" vertex="1" connectable="0">
          <mxGeometry x="-0.6518" y="1" relative="1" as="geometry">
            <mxPoint as="offset" />
          </mxGeometry>
        </mxCell>
        <mxCell id="FD02nayElv6m7gwwoiaN-8" value="" style="endArrow=none;html=1;rounded=0;entryX=0;entryY=0.5;entryDx=0;entryDy=0;exitX=1;exitY=0.5;exitDx=0;exitDy=0;" parent="WIyWlLk6GJQsqaUBKTNV-1" source="FD02nayElv6m7gwwoiaN-5" target="1NZBN1DP3-KnoKSpKNE3-0" edge="1">
          <mxGeometry relative="1" as="geometry">
            <mxPoint x="315" y="40" as="sourcePoint" />
            <mxPoint x="309" y="230" as="targetPoint" />
          </mxGeometry>
        </mxCell>
        <mxCell id="FD02nayElv6m7gwwoiaN-12" value="*" style="edgeLabel;html=1;align=center;verticalAlign=middle;resizable=0;points=[];" parent="FD02nayElv6m7gwwoiaN-8" vertex="1" connectable="0">
          <mxGeometry x="0.7234" y="1" relative="1" as="geometry">
            <mxPoint as="offset" />
          </mxGeometry>
        </mxCell>
      </root>
    </mxGraphModel>
  </diagram>
</mxfile>
